<mxfile host="app.diagrams.net" modified="2024-04-20T01:23:50.033Z" agent="Mozilla/5.0 (Windows NT 10.0; Win64; x64) AppleWebKit/537.36 (KHTML, like Gecko) Chrome/124.0.0.0 Safari/537.36" version="24.2.7" etag="5rvARy9F62NHXw-zRV1W" type="github">
  <diagram name="PÃ¡gina-1" id="WBfZVLV87-FzEdxWvx5d">
    <mxGraphModel>
      <root>
        <mxCell id="0" />
        <mxCell id="1" parent="0" />
      </root>
    </mxGraphModel>
  </diagram>
</mxfile>
